{"glyphs":{":":{"x_min":0,"x_max":193,"ha":193,"o":"m 56 83 l 67 190 l 145 190 l 134 83 z m 92 423 l 104 530 l 181 530 l 169 423 z"},"$":{"x_min":0,"x_max":466,"ha":466,"o":"m 207 -87 l 215 -10 q 122 -8 80 50 q 41 104 41 197 q 41 203 41 210 l 110 229 q 110 197 113 173 q 116 148 123 124 q 131 101 144 85 q 156 70 177 61 q 199 52 228 52 q 342 52 354 169 q 355 179 355 188 q 355 212 348 234 q 338 265 321 288 q 304 311 273 344 l 145 481 q 110 518 97 558 q 86 586 86 620 q 86 632 88 645 q 97 724 147 769 q 198 814 278 818 l 287 902 l 318 902 l 310 818 q 390 813 427 765 q 462 720 462 629 q 462 622 461 613 l 395 596 q 395 603 395 608 q 395 681 373 719 q 350 758 290 758 q 287 758 284 758 q 230 757 197 730 q 164 704 158 651 q 157 643 157 635 q 157 611 165 591 q 175 563 202 533 l 331 398 q 380 345 406 292 q 427 249 427 200 q 427 188 426 174 q 417 93 369 46 q 321 -1 246 -9 l 237 -87 z"},"?":{"x_min":0,"x_max":474,"ha":474,"o":"m 173 201 l 186 325 q 285 392 337 460 q 390 528 398 610 q 400 623 400 635 q 400 687 375 718 q 344 756 292 756 q 235 756 203 724 q 175 697 175 653 q 175 645 176 636 l 179 601 l 111 586 l 106 622 q 105 636 105 648 q 105 680 114 707 q 127 745 154 769 q 181 793 219 807 q 256 820 300 820 q 386 820 433 766 q 471 721 471 645 q 471 628 469 609 q 464 561 447 519 q 430 478 399 440 q 369 403 334 372 q 299 341 249 305 l 238 201 z m 149 0 l 158 87 l 230 87 l 222 0 z"},"<":{"x_min":0,"x_max":363,"ha":363,"o":"m 291 62 l 35 266 l 42 338 l 342 548 l 333 472 l 95 302 l 298 137 z"},"'":{"x_min":0,"x_max":286,"ha":286,"o":"m 120 573 l 145 810 l 215 810 l 160 573 z"},"=":{"x_min":0,"x_max":400,"ha":400,"o":"m 59 285 l 65 343 l 364 343 l 357 285 z m 76 453 l 83 511 l 381 511 l 375 453 z"},"a":{"x_min":0,"x_max":397,"ha":397,"o":"m 133 -9 q 82 -9 53 28 q 29 60 29 104 q 29 112 30 121 q 33 149 41 172 q 48 195 63 215 q 79 235 96 250 q 114 266 145 283 q 176 300 207 315 q 238 330 288 351 l 292 392 q 295 425 295 449 q 295 484 288 502 q 276 532 235 532 q 154 532 144 433 l 142 412 l 70 414 q 70 418 72 432 q 84 514 127 550 q 170 587 245 587 q 321 587 349 542 q 368 509 368 448 q 368 424 365 396 l 336 115 q 329 54 329 11 q 329 5 329 0 l 264 0 q 262 59 262 80 q 245 42 210 16 q 176 -9 133 -9 z m 163 54 q 193 54 219 74 q 246 94 263 122 l 282 302 q 194 258 168 240 q 124 210 111 170 q 107 155 105 138 q 104 129 104 121 q 104 91 117 74 q 134 54 163 54 z"},"L":{"x_min":0,"x_max":382,"ha":382,"o":"m 48 0 l 133 810 l 210 810 l 131 57 l 361 57 l 355 0 z"},"3":{"x_min":0,"x_max":479,"ha":479,"o":"m 215 -10 q 124 -10 85 42 q 54 83 54 151 q 54 168 56 187 l 58 207 l 129 207 q 129 205 128 198 q 127 192 127 190 q 125 175 125 161 q 125 113 142 86 q 164 50 222 50 q 280 50 314 90 q 348 130 357 220 q 359 241 359 259 q 359 389 254 392 q 252 393 234 393 l 242 461 l 261 461 q 327 462 359 499 q 391 535 399 616 q 401 633 401 649 q 401 693 385 722 q 363 759 304 759 q 243 759 211 725 q 180 691 172 618 q 172 613 170 604 l 99 604 l 101 623 q 111 716 162 767 q 212 818 310 818 q 401 818 442 764 q 475 720 475 650 q 475 634 473 616 q 465 534 428 486 q 392 438 338 426 q 386 412 414 361 q 435 324 435 264 q 435 244 432 221 q 420 113 367 51 q 314 -10 215 -10 z"},";":{"x_min":0,"x_max":208,"ha":208,"o":"m 54 -28 l 42 4 q 71 16 83 32 q 95 48 98 79 l 55 79 l 66 182 l 147 182 l 137 87 q 132 37 113 10 q 95 -17 54 -28 z m 93 441 l 105 550 l 182 550 l 170 441 z"},"J":{"x_min":0,"x_max":279,"ha":279,"o":"m -18 -36 l -12 22 q 17 22 36 24 q 55 26 71 32 q 86 39 94 48 q 103 57 110 74 q 116 91 120 111 q 123 131 126 163 l 194 810 l 271 810 l 203 158 q 198 116 192 87 q 185 58 172 33 q 159 8 140 -6 q 120 -20 91 -28 q 61 -36 20 -36 z"},"V":{"x_min":0,"x_max":490,"ha":490,"o":"m 192 0 l 87 810 l 160 810 l 243 140 l 457 810 l 529 810 l 261 0 z"},"\"":{"x_min":0,"x_max":356,"ha":356,"o":"m 120 573 l 145 810 l 215 810 l 160 573 z m 258 573 l 283 810 l 353 810 l 298 573 z"},"7":{"x_min":0,"x_max":433,"ha":433,"o":"m 123 0 l 360 751 l 115 751 l 121 810 l 440 810 l 437 774 l 194 0 z"},"S":{"x_min":0,"x_max":460,"ha":460,"o":"m 221 -10 q 125 -10 81 48 q 40 102 40 195 q 40 203 41 210 l 110 229 q 110 197 113 173 q 116 148 123 124 q 131 101 144 85 q 156 70 177 61 q 199 52 228 52 q 342 52 354 169 q 355 179 355 188 q 355 212 348 234 q 338 265 321 288 q 304 311 273 344 l 145 481 q 110 518 97 558 q 86 586 86 620 q 86 632 88 645 q 97 727 151 772 q 205 818 289 818 q 291 818 292 818 q 380 818 422 771 q 462 726 462 629 q 462 621 461 613 l 395 596 q 395 603 395 608 q 395 681 373 719 q 350 758 290 758 q 287 758 284 758 q 230 757 197 730 q 164 704 158 651 q 157 643 157 635 q 157 611 165 591 q 175 563 202 533 l 331 398 q 380 345 406 292 q 427 249 427 200 q 427 188 426 174 q 417 86 361 38 q 305 -10 221 -10 z"},"}":{"x_min":0,"x_max":270,"ha":270,"o":"m -8 -165 l -2 -110 q 36 -110 48 -101 q 63 -89 70 -44 q 74 -23 80 37 l 80 37 l 95 182 q 101 231 110 262 q 120 292 134 308 q 148 323 170 329 q 139 338 129 370 q 123 389 123 422 q 123 445 126 476 l 141 616 q 149 669 149 701 q 149 708 149 715 q 146 747 136 755 q 125 763 89 763 l 95 817 q 122 817 140 816 q 158 815 174 811 q 189 806 198 801 q 207 796 213 783 q 219 770 221 758 q 224 746 224 722 q 224 698 222 676 q 220 654 216 616 l 203 491 q 197 451 197 424 q 197 415 198 408 q 200 378 211 367 q 222 357 247 357 l 241 300 q 216 300 202 289 q 189 278 182 250 q 174 223 168 166 l 155 37 q 151 -1 148 -23 q 146 -45 141 -70 q 136 -94 131 -106 q 126 -118 117 -131 q 108 -144 98 -148 q 88 -153 72 -158 q 55 -163 37 -164 q 19 -165 -8 -165 z"},"Z":{"x_min":0,"x_max":407,"ha":407,"o":"m 12 0 l 18 58 l 362 752 l 113 752 l 119 810 l 450 810 l 446 770 l 93 57 l 372 57 l 366 0 z"},"x":{"x_min":0,"x_max":380,"ha":380,"o":"m -6 0 l 163 302 l 61 578 l 134 578 l 211 366 l 328 578 l 401 578 l 237 294 l 343 0 l 273 0 l 190 228 l 65 0 z"},")":{"x_min":0,"x_max":257,"ha":257,"o":"m -9 -165 l -4 -114 q 58 -108 90 0 q 114 78 134 266 q 136 283 140 319 q 140 324 141 326 q 161 517 161 586 q 161 592 161 598 q 161 726 118 755 q 104 764 89 765 l 94 816 q 119 815 138 809 q 158 802 173 788 q 187 773 198 758 q 209 742 215 716 q 221 689 225 667 q 229 645 230 609 q 230 591 230 575 q 230 560 230 546 q 229 520 226 476 q 223 433 220 404 q 217 375 212 326 q 205 256 200 217 q 195 177 185 118 q 176 60 166 26 q 156 -8 140 -48 q 123 -88 103 -110 q 83 -131 54 -147 q 26 -163 -9 -165 z"},"&":{"x_min":0,"x_max":604,"ha":604,"o":"m 221 -10 q 161 -10 121 15 q 81 40 64 81 q 52 112 52 149 q 52 161 54 174 q 60 236 97 293 q 134 350 208 416 q 164 507 153 539 q 137 584 137 625 q 137 637 138 647 q 146 728 197 773 q 248 818 327 818 q 403 818 444 779 q 479 747 479 693 q 479 684 478 674 q 472 611 420 546 q 369 482 281 410 l 411 164 q 440 200 464 257 q 488 313 496 359 l 566 359 q 560 304 527 235 q 494 165 450 117 q 485 65 537 65 l 529 -7 q 523 -7 510 -6 q 452 -1 401 69 q 367 34 320 12 q 274 -10 221 -10 z m 228 51 q 297 51 364 117 l 232 363 q 137 269 127 174 q 126 165 126 156 q 126 143 129 130 q 132 109 143 91 q 154 73 176 62 q 197 51 228 51 z m 259 452 q 395 575 406 675 q 406 682 406 688 q 406 718 387 736 q 364 758 320 758 q 272 758 244 727 q 215 696 210 648 q 209 637 209 625 q 209 593 218 561 q 230 517 259 452 z"},"_":{"x_min":0,"x_max":333,"ha":333,"o":"m -33 -106 l -27 -49 l 305 -49 l 299 -106 z"},"v":{"x_min":0,"x_max":368,"ha":368,"o":"m 122 0 l 56 578 l 130 578 l 173 84 l 317 578 l 389 578 l 208 0 z"},"O":{"x_min":0,"x_max":524,"ha":524,"o":"m 395 223 l 433 589 q 436 613 436 634 q 436 647 435 659 q 432 690 421 712 q 410 734 385 746 q 359 758 320 758 q 281 758 254 746 q 226 735 209 711 q 193 688 184 659 q 176 630 171 589 l 133 223 q 130 199 130 177 q 130 165 131 152 q 134 121 145 99 q 156 76 181 64 q 207 51 246 51 q 285 51 312 63 q 340 75 356 99 q 373 123 382 152 q 390 182 395 223 z m 239 -10 q 192 -10 157 1 q 123 13 102 35 q 81 57 69 88 q 57 119 55 157 q 55 167 55 178 q 55 207 58 239 l 93 575 q 99 632 114 675 q 129 718 156 751 q 183 784 226 801 q 269 818 326 818 q 373 818 407 807 q 441 796 463 775 q 484 753 496 724 q 509 694 511 656 q 511 644 511 631 q 511 604 509 575 l 473 238 q 467 181 452 137 q 438 94 411 60 q 384 25 341 8 q 297 -10 239 -10 z"},"(":{"x_min":0,"x_max":278,"ha":278,"o":"m 208 -165 q 178 -163 155 -153 q 131 -142 116 -120 q 102 -98 91 -75 q 81 -52 77 -13 q 74 27 72 58 q 72 67 72 77 q 72 104 74 142 q 78 194 81 229 q 84 264 91 325 q 98 396 103 435 q 108 475 117 534 q 127 594 137 627 q 146 661 163 702 q 180 742 200 763 q 220 785 248 800 q 276 815 312 816 l 306 765 q 286 763 268 749 q 251 736 239 715 q 226 694 216 662 q 205 629 198 596 q 191 562 184 516 q 178 471 173 430 q 168 389 163 335 q 163 329 162 325 q 142 133 141 61 q 141 58 141 55 q 141 -77 187 -105 q 199 -113 214 -114 z"},"C":{"x_min":0,"x_max":499,"ha":499,"o":"m 236 -10 q 188 -10 153 2 q 118 15 98 38 q 78 62 67 93 q 56 125 55 163 q 55 167 55 172 q 55 206 58 244 l 92 565 q 97 612 106 649 q 116 686 134 719 q 151 751 177 772 q 202 794 239 806 q 276 818 323 818 q 376 818 413 802 q 449 786 467 756 q 485 727 491 684 q 495 663 495 640 q 495 615 491 588 l 486 539 l 414 539 l 418 586 q 421 616 421 642 q 421 661 420 677 q 416 715 391 737 q 367 758 317 758 q 285 758 261 749 q 237 740 222 725 q 206 710 195 686 q 185 662 179 636 q 174 611 170 575 l 134 231 q 131 204 131 181 q 131 125 147 94 q 171 51 243 51 q 280 51 306 63 q 331 75 346 100 q 361 125 369 154 q 376 184 381 227 l 386 279 l 458 279 l 454 232 q 448 176 434 134 q 421 92 396 58 q 372 24 331 7 q 291 -10 236 -10 z"},"W":{"x_min":0,"x_max":715,"ha":715,"o":"m 150 0 l 98 809 l 163 810 l 201 152 l 391 797 l 454 797 l 510 151 l 679 810 l 743 810 l 527 0 l 468 0 l 410 668 l 212 0 z"},"A":{"x_min":0,"x_max":477,"ha":477,"o":"m 5 0 l 261 810 l 341 810 l 428 0 l 354 0 l 336 216 l 143 216 l 79 0 z m 160 272 l 332 272 l 291 708 z"},"f":{"x_min":0,"x_max":268,"ha":268,"o":"m 71 0 l 126 525 l 51 525 l 56 578 l 131 578 l 138 638 q 141 667 145 687 q 148 707 157 727 q 165 747 177 759 q 190 771 210 778 q 231 785 259 785 q 285 785 317 779 l 312 724 q 278 729 271 729 q 239 729 228 710 q 216 691 211 646 l 204 578 l 298 578 l 292 525 l 199 525 l 144 0 z"},"Q":{"x_min":0,"x_max":530,"ha":530,"o":"m 391 -159 q 364 -138 328 -94 q 292 -50 267 -9 q 250 -10 242 -10 q 183 -10 143 8 q 103 26 83 59 q 64 92 57 138 q 54 160 54 185 q 54 211 58 239 l 93 575 q 99 632 114 675 q 129 719 157 751 q 185 784 228 801 q 271 818 329 818 q 386 818 426 801 q 465 784 486 751 q 506 718 513 675 q 517 652 517 625 q 517 602 514 575 l 478 238 q 472 177 456 132 q 439 86 407 52 q 374 18 326 3 q 342 -24 378 -64 q 413 -104 434 -123 z m 399 223 l 438 589 q 441 611 441 632 q 441 646 439 659 q 436 690 425 712 q 413 734 387 746 q 362 758 323 758 q 284 758 256 746 q 228 735 211 711 q 194 688 185 659 q 176 629 171 589 l 133 223 q 130 200 130 180 q 130 166 131 152 q 135 121 146 99 q 158 76 183 64 q 209 51 248 51 q 287 51 315 63 q 343 75 360 99 q 377 123 386 152 q 395 182 399 223 z"},"w":{"x_min":0,"x_max":575,"ha":575,"o":"m 104 0 l 70 578 l 132 578 l 154 95 l 295 578 l 358 578 l 400 97 l 520 578 l 582 578 l 428 0 l 359 0 l 317 470 l 177 0 z"},"-":{"x_min":0,"x_max":298,"ha":298,"o":"m 52 297 l 58 355 l 271 355 l 265 297 z"},"E":{"x_min":0,"x_max":398,"ha":398,"o":"m 48 0 l 133 810 l 426 810 l 420 751 l 204 751 l 172 448 l 349 448 l 343 391 l 166 391 l 131 57 l 350 57 l 343 0 z"},"s":{"x_min":0,"x_max":363,"ha":363,"o":"m 60 35 q 25 77 25 148 q 25 151 25 155 l 88 174 q 88 171 88 168 q 88 107 108 77 q 130 46 174 46 q 212 46 236 68 q 260 91 264 129 q 264 133 264 138 q 264 191 206 245 l 134 312 q 96 346 81 379 q 69 404 69 435 q 69 445 70 457 q 78 519 118 553 q 159 587 222 587 q 286 587 316 546 q 343 509 343 449 q 343 442 343 435 l 289 418 q 290 425 290 432 q 290 532 219 532 q 185 532 163 513 q 140 494 137 462 q 136 456 136 450 q 136 430 143 415 q 150 395 175 371 l 249 298 q 269 279 281 264 q 294 250 307 229 q 320 208 325 183 q 329 166 329 148 q 329 139 328 130 q 321 63 277 27 q 233 -9 165 -9 q 97 -9 60 35 z"},">":{"x_min":0,"x_max":363,"ha":363,"o":"m 42 62 l 50 137 l 289 308 l 85 472 l 93 548 l 349 343 l 342 271 z"},"l":{"x_min":0,"x_max":202,"ha":202,"o":"m 44 0 l 129 810 l 203 810 l 118 0 z"},"8":{"x_min":0,"x_max":485,"ha":485,"o":"m 220 -10 q 50 -10 50 168 q 50 191 53 217 q 58 258 68 291 q 79 323 92 344 q 104 364 123 381 q 142 398 156 407 q 170 416 191 425 q 101 464 101 580 q 101 597 103 615 q 113 709 163 764 q 212 818 307 818 q 355 818 389 803 q 423 788 441 760 q 459 732 466 695 q 469 675 469 651 q 469 633 467 613 q 452 470 339 425 q 348 420 355 417 q 361 413 370 406 q 379 400 385 395 q 392 389 399 381 q 406 373 411 364 q 417 354 422 343 q 427 332 430 319 q 433 306 435 290 q 437 276 437 260 q 437 258 437 256 q 436 238 434 217 q 410 -10 220 -10 z m 226 49 q 286 49 320 90 q 353 131 362 217 q 364 238 364 256 q 364 382 262 391 q 142 381 125 217 q 122 194 122 174 q 122 120 141 90 q 166 49 226 49 z m 269 458 q 379 463 396 616 q 397 633 397 648 q 397 759 301 759 q 190 759 175 616 q 173 597 173 581 q 173 462 269 458 z"},"\\":{"x_min":0,"x_max":344,"ha":344,"o":"m 233 0 l 87 810 l 152 810 l 297 0 z"},"e":{"x_min":0,"x_max":395,"ha":395,"o":"m 178 -9 q 95 -9 64 42 q 42 78 42 150 q 42 181 46 217 l 61 363 q 70 448 93 497 q 115 547 151 567 q 187 587 242 587 q 302 587 332 561 q 362 536 369 483 q 372 460 372 433 q 372 395 367 349 l 360 296 l 127 296 l 118 210 q 114 173 114 146 q 114 105 122 83 q 136 46 184 46 q 222 46 245 70 q 268 94 274 158 l 279 198 l 351 198 l 347 166 q 338 82 298 36 q 258 -9 178 -9 z m 132 338 l 293 338 l 298 386 q 302 425 302 455 q 302 459 302 464 q 301 497 285 514 q 269 532 235 532 q 204 532 185 519 q 167 506 155 472 q 143 439 136 377 z"},"b":{"x_min":0,"x_max":416,"ha":416,"o":"m 210 -9 q 154 -9 113 46 l 108 0 l 35 0 l 120 810 l 193 810 l 164 530 q 215 587 280 587 q 308 587 328 578 q 348 569 360 553 q 373 536 380 516 q 387 495 390 468 q 391 447 391 427 q 391 420 391 414 q 390 388 387 356 l 374 234 q 369 188 361 152 q 354 116 341 85 q 328 54 310 34 q 292 14 267 2 q 242 -9 210 -9 z m 204 49 q 224 49 238 57 q 252 65 263 79 q 273 93 280 117 q 288 141 292 168 q 297 195 301 233 l 313 356 q 318 403 318 438 q 318 445 318 452 q 317 490 302 510 q 286 529 253 529 q 208 529 159 485 l 118 91 q 153 49 204 49 z"},"%":{"x_min":0,"x_max":732,"ha":732,"o":"m 189 460 q 221 460 236 485 q 250 510 255 556 l 268 675 q 269 690 269 703 q 269 728 263 744 q 253 768 221 768 q 189 768 175 744 q 161 719 156 674 l 144 556 q 142 541 142 528 q 142 502 148 485 q 158 460 189 460 z m 183 404 q 75 404 75 524 q 75 541 77 559 l 89 671 q 97 746 130 785 q 163 825 228 825 q 292 825 317 786 q 336 757 336 708 q 336 692 334 674 l 322 558 q 306 404 183 404 z m 619 147 l 631 266 q 632 282 632 295 q 632 305 632 313 q 630 334 618 347 q 606 359 585 359 q 553 359 539 335 q 524 311 520 265 l 507 146 q 505 132 505 120 q 505 93 512 75 q 521 50 553 50 q 584 50 599 76 q 614 101 619 147 z m 547 -6 q 438 -6 438 115 q 438 131 440 150 l 452 262 q 460 336 493 376 q 526 416 591 416 q 656 416 681 377 q 700 348 700 298 q 700 283 698 265 l 685 148 q 670 -6 547 -6 z m 184 0 l 526 817 l 591 817 l 250 0 z"},"m":{"x_min":0,"x_max":637,"ha":637,"o":"m 34 0 l 94 578 l 167 578 l 162 519 q 231 587 307 587 q 375 587 384 513 q 457 587 535 587 q 579 587 598 555 q 613 531 613 491 q 613 479 611 464 l 562 0 l 489 0 l 536 448 q 538 461 538 472 q 538 498 529 511 q 518 529 490 529 q 442 529 384 476 q 384 468 383 458 l 334 0 l 261 0 l 308 448 q 310 461 310 472 q 310 498 302 511 q 290 529 262 529 q 214 529 157 477 l 107 0 z"},"#":{"x_min":0,"x_max":465,"ha":465,"o":"m 31 0 l 106 292 l 50 292 l 56 346 l 120 346 l 157 487 l 83 487 l 88 542 l 171 542 l 241 810 l 312 810 l 243 542 l 341 542 l 411 810 l 482 810 l 413 542 l 464 542 l 458 487 l 399 487 l 362 346 l 431 346 l 425 292 l 348 292 l 272 0 l 201 0 l 276 292 l 178 292 l 102 0 z m 191 346 l 291 346 l 328 487 l 229 487 z"},",":{"x_min":0,"x_max":181,"ha":181,"o":"m 30 -117 l 19 -84 q 46 -70 59 -50 q 72 -31 75 0 l 31 0 l 43 109 l 125 109 l 114 8 q 109 -41 90 -69 q 71 -97 30 -117 z"},"n":{"x_min":0,"x_max":409,"ha":409,"o":"m 34 0 l 94 578 l 167 578 l 162 518 q 232 587 308 587 q 351 587 371 555 q 385 531 385 491 q 385 479 384 464 l 335 0 l 262 0 l 309 448 q 310 461 310 472 q 310 498 302 511 q 291 529 262 529 q 214 529 157 476 l 107 0 z"},"h":{"x_min":0,"x_max":412,"ha":412,"o":"m 35 0 l 120 810 l 193 810 l 163 518 q 235 587 311 587 q 354 587 373 555 q 388 531 388 491 q 388 478 387 464 l 338 0 l 264 0 l 312 448 q 313 460 313 471 q 313 498 305 511 q 293 529 265 529 q 217 529 158 476 l 108 0 z"},"z":{"x_min":0,"x_max":333,"ha":333,"o":"m 10 0 l 16 51 l 262 522 l 85 522 l 91 578 l 345 578 l 340 535 l 94 56 l 286 56 l 280 0 z"},"B":{"x_min":0,"x_max":501,"ha":501,"o":"m 48 0 l 133 810 l 307 810 q 413 810 454 757 q 487 715 487 645 q 487 627 485 608 q 480 566 468 532 q 456 498 429 471 q 402 444 364 437 q 467 407 467 275 q 467 256 465 234 q 460 193 452 160 q 443 127 427 96 q 410 66 387 45 q 363 24 328 12 q 293 0 249 0 z m 131 57 l 241 57 q 317 57 349 98 q 381 139 391 234 q 393 253 393 270 q 393 402 278 402 l 167 402 z m 173 461 l 284 461 q 349 461 379 499 q 409 536 416 608 q 418 626 418 642 q 418 658 416 672 q 412 697 396 716 q 380 734 351 743 q 322 751 276 751 l 204 751 z"},"K":{"x_min":0,"x_max":473,"ha":473,"o":"m 48 0 l 133 810 l 210 810 l 165 383 l 426 810 l 500 810 l 296 462 l 450 0 l 375 0 l 235 422 l 157 301 l 125 0 z"},"R":{"x_min":0,"x_max":512,"ha":512,"o":"m 48 0 l 133 810 l 317 810 q 373 810 410 796 q 448 782 469 755 q 489 728 495 691 q 499 670 499 646 q 499 626 497 605 q 479 438 364 414 l 446 0 l 371 0 l 293 398 l 167 398 l 125 0 z m 173 454 l 276 454 q 349 454 382 490 q 414 526 422 605 q 424 625 424 643 q 424 692 407 718 q 383 752 310 752 l 204 752 z"},"T":{"x_min":0,"x_max":388,"ha":388,"o":"m 136 0 l 215 751 l 52 751 l 59 810 l 456 810 l 450 751 l 292 751 l 212 0 z"},"P":{"x_min":0,"x_max":483,"ha":483,"o":"m 48 0 l 133 810 l 328 810 q 381 810 417 794 q 454 779 473 750 q 492 721 498 683 q 501 663 501 639 q 501 619 499 595 q 494 550 479 513 q 464 476 439 446 q 414 417 374 400 q 334 383 284 383 l 166 383 l 125 0 z m 171 440 l 269 440 q 343 440 379 474 q 415 509 423 595 q 426 626 426 650 q 426 662 425 672 q 423 703 408 721 q 393 739 369 746 q 344 753 303 753 l 205 753 z"},"|":{"x_min":0,"x_max":217,"ha":217,"o":"m 37 -144 l 138 810 l 206 810 l 105 -144 z"},"t":{"x_min":0,"x_max":280,"ha":280,"o":"m 170 -7 q 139 -7 119 2 q 99 11 90 28 q 81 45 78 68 q 77 79 77 90 q 77 104 79 120 l 122 529 l 52 529 l 57 578 l 127 578 l 146 757 l 219 757 l 200 578 l 296 578 l 292 529 l 195 529 l 153 127 q 151 112 151 101 q 151 78 157 67 q 166 50 196 50 q 216 50 238 54 l 232 -1 q 199 -7 170 -7 z"},"M":{"x_min":0,"x_max":643,"ha":643,"o":"m 42 0 l 147 810 l 222 810 l 310 107 l 545 810 l 622 810 l 557 0 l 494 0 l 546 646 l 323 0 l 274 0 l 189 644 l 106 0 z"},"g":{"x_min":0,"x_max":431,"ha":431,"o":"m 173 -190 q 127 -190 93 -185 q 58 -180 32 -169 q 6 -158 -5 -139 q -16 -123 -16 -101 q -16 -97 -15 -92 q -11 -50 21 -15 q 53 20 95 41 q 70 48 52 62 q 36 74 36 89 q 36 90 36 92 q 41 138 117 208 q 62 252 62 346 q 62 365 63 385 q 68 427 82 463 q 95 499 117 527 q 139 555 172 571 q 206 587 246 587 q 333 587 363 515 q 374 531 398 550 q 422 569 448 580 l 463 586 l 478 535 q 453 529 422 514 q 391 499 377 484 q 383 466 385 435 q 386 420 386 408 q 386 394 385 383 q 375 290 331 236 q 287 181 204 181 q 190 181 172 184 q 153 188 146 190 q 144 187 134 174 q 123 160 117 152 q 112 145 106 134 q 99 122 99 114 q 99 101 145 93 q 155 91 193 85 q 231 79 236 78 q 307 65 339 34 q 368 7 368 -39 q 368 -47 367 -56 q 359 -125 308 -157 q 256 -190 173 -190 z m 178 -131 q 235 -131 270 -113 q 304 -95 308 -58 q 309 -53 309 -49 q 309 -23 291 -8 q 271 9 208 21 l 135 31 q 104 13 79 -12 q 54 -37 51 -68 q 50 -72 50 -75 q 50 -103 77 -116 q 107 -131 178 -131 z m 209 234 q 234 234 253 243 q 272 252 283 267 q 295 281 303 302 q 311 323 315 342 q 318 361 321 385 q 323 407 323 425 q 323 535 242 535 q 213 535 191 521 q 170 507 157 484 q 145 460 138 437 q 132 413 129 385 q 127 364 127 346 q 127 234 209 234 z"},"j":{"x_min":0,"x_max":213,"ha":213,"o":"m -54 -148 l -48 -92 q -43 -94 -23 -94 q -1 -94 13 -88 q 28 -82 36 -69 q 44 -57 48 -44 q 51 -32 53 -14 l 115 578 l 188 578 l 125 -20 q 112 -151 -16 -151 q -46 -151 -54 -148 z m 124 658 l 134 757 l 208 757 l 197 658 z"},"i":{"x_min":0,"x_max":204,"ha":204,"o":"m 42 0 l 103 578 l 176 578 l 115 0 z m 111 658 l 122 757 l 195 757 l 185 658 z"},"y":{"x_min":0,"x_max":381,"ha":381,"o":"m 3 -144 l 9 -87 q 62 -87 89 -79 q 116 -70 125 -55 q 133 -41 133 -14 q 133 -13 133 -11 q 132 6 124 69 l 58 578 l 131 578 l 180 86 l 329 578 l 402 578 l 197 -42 q 179 -97 137 -120 q 96 -144 22 -144 z"},"@":{"x_min":0,"x_max":843,"ha":843,"o":"m 419 -112 q 353 -112 297 -99 q 241 -85 194 -54 q 146 -23 116 25 q 85 74 73 147 q 65 188 65 236 q 65 273 70 313 q 80 413 109 495 q 138 577 181 634 q 223 692 278 731 q 333 771 396 790 q 458 809 526 809 q 528 809 529 809 q 616 809 678 781 q 742 753 777 700 q 812 647 824 573 q 830 538 830 500 q 830 455 822 405 q 812 332 786 274 q 760 217 726 184 q 692 151 656 135 q 619 119 583 119 q 546 119 522 144 q 504 163 504 193 q 504 202 505 211 q 486 171 456 144 q 426 117 385 116 q 381 116 376 116 q 318 116 287 160 q 262 198 262 259 q 262 274 263 291 q 270 354 295 412 q 320 470 356 512 q 392 555 437 580 q 482 605 527 605 q 565 605 595 580 l 605 599 l 660 599 l 573 251 q 569 234 567 223 q 565 212 565 200 q 565 188 568 181 q 571 174 579 169 q 586 165 598 165 q 622 165 646 178 q 670 192 694 219 q 718 245 737 292 q 756 339 764 400 q 772 452 772 496 q 772 604 726 666 q 662 752 521 752 q 519 752 517 752 q 444 751 380 721 q 316 692 266 637 q 215 582 182 500 q 148 417 138 315 q 133 279 133 248 q 133 235 134 224 q 136 182 143 148 q 149 114 163 86 q 176 59 192 38 q 208 17 230 1 q 251 -15 274 -25 q 297 -36 323 -43 q 350 -49 376 -52 q 402 -55 431 -55 q 521 -55 617 -29 l 627 -83 q 507 -112 419 -112 z m 402 172 q 435 174 464 203 q 494 232 515 284 l 578 536 q 558 549 532 549 q 500 549 468 530 q 435 511 407 478 q 379 445 359 396 q 339 347 333 290 q 332 274 332 260 q 332 220 347 198 q 364 172 394 172 q 398 172 402 172 z"},".":{"x_min":0,"x_max":182,"ha":182,"o":"m 38 0 l 49 110 l 127 110 l 115 0 z"},"p":{"x_min":0,"x_max":417,"ha":417,"o":"m 14 -190 l 95 578 l 168 578 l 164 530 q 214 587 280 587 q 307 587 327 578 q 348 569 360 553 q 372 536 379 516 q 387 495 389 468 q 391 447 391 427 q 391 420 391 414 q 390 388 386 356 l 374 234 q 369 188 361 152 q 354 116 340 85 q 327 54 309 34 q 292 14 266 2 q 241 -9 209 -9 q 153 -9 112 46 l 87 -190 z m 204 49 q 250 49 270 92 q 290 135 300 233 l 313 356 q 318 403 318 438 q 318 445 317 452 q 316 490 301 510 q 286 529 253 529 q 208 529 159 485 l 117 91 q 152 49 204 49 z"},"X":{"x_min":0,"x_max":463,"ha":463,"o":"m -8 0 l 211 422 l 79 810 l 149 810 l 261 487 l 434 810 l 507 810 l 286 413 l 427 0 l 355 0 l 238 342 l 65 0 z"},"*":{"x_min":0,"x_max":372,"ha":372,"o":"m 146 483 l 105 511 l 204 628 l 84 678 l 108 725 l 222 665 l 229 809 l 286 809 l 261 665 l 387 725 l 400 678 l 271 628 l 346 510 l 298 483 l 235 610 z"},"Y":{"x_min":0,"x_max":469,"ha":469,"o":"m 178 0 l 206 269 l 80 810 l 155 810 l 253 360 l 440 810 l 515 810 l 280 269 l 252 0 z"},"c":{"x_min":0,"x_max":389,"ha":389,"o":"m 177 -9 q 128 -9 98 8 q 67 25 56 56 q 44 86 42 128 q 41 139 41 151 q 41 183 46 219 l 61 354 q 67 417 78 459 q 89 500 110 530 q 130 560 162 573 q 193 587 239 587 q 284 587 313 573 q 341 560 354 536 q 366 512 369 478 q 371 464 371 450 q 371 427 367 402 l 364 375 l 297 375 l 300 402 q 302 427 302 446 q 302 486 292 504 q 278 532 234 532 q 184 532 164 497 q 145 461 135 366 l 118 204 q 114 168 114 141 q 114 101 122 81 q 136 46 184 46 q 209 46 226 54 q 242 62 252 81 q 263 100 268 124 q 273 147 277 186 l 280 217 l 348 217 l 345 189 q 341 151 335 123 q 329 95 316 69 q 304 43 287 27 q 269 10 241 0 q 213 -9 177 -9 z"},"!":{"x_min":0,"x_max":201,"ha":201,"o":"m 39 0 l 48 87 l 126 87 l 117 0 z m 84 174 l 125 810 l 203 810 l 110 174 z"},"/":{"x_min":0,"x_max":344,"ha":344,"o":"m 2 0 l 318 810 l 382 810 l 67 0 z"},"[":{"x_min":0,"x_max":302,"ha":302,"o":"m 31 -160 l 133 810 l 308 810 l 304 769 l 203 769 l 110 -119 l 210 -119 l 206 -160 z"},"6":{"x_min":0,"x_max":491,"ha":491,"o":"m 230 -10 q 66 -10 66 184 q 66 212 70 244 l 104 567 q 130 818 317 818 q 408 818 448 771 q 481 732 481 662 q 481 647 479 631 q 478 623 478 615 l 405 615 q 408 637 408 655 q 408 702 393 725 q 372 758 313 758 q 197 758 179 583 l 163 431 q 186 450 222 464 q 258 479 298 479 q 348 479 380 464 q 412 450 429 421 q 447 391 451 346 q 452 329 452 310 q 452 277 448 237 q 422 -10 230 -10 z m 236 51 q 297 51 330 92 q 362 132 372 223 q 377 272 377 310 q 377 322 376 333 q 374 377 350 399 q 327 421 275 421 q 243 421 210 407 q 176 392 157 375 l 142 235 q 139 204 139 179 q 139 125 154 95 q 177 51 236 51 z"},"r":{"x_min":0,"x_max":298,"ha":298,"o":"m 40 0 l 100 578 l 173 578 l 166 499 q 196 542 234 563 q 271 584 308 584 q 316 584 320 584 l 312 505 q 296 511 277 511 q 207 511 160 444 l 113 0 z"},"2":{"x_min":0,"x_max":485,"ha":485,"o":"m 27 0 l 33 54 l 286 388 q 289 392 306 415 q 323 438 327 443 q 331 448 344 467 q 358 487 362 495 q 366 503 376 521 q 385 540 389 552 q 393 565 397 583 q 401 600 403 618 q 405 633 405 646 q 405 692 387 721 q 363 757 310 757 q 274 757 248 745 q 221 732 205 708 q 189 684 181 655 q 172 626 168 588 q 166 583 166 570 l 93 570 l 95 590 q 107 704 160 761 q 212 818 313 818 q 403 818 445 765 q 478 722 478 650 q 478 632 476 613 q 472 577 462 545 q 451 513 431 479 q 411 446 397 426 q 383 406 354 369 l 120 62 l 401 62 l 394 0 z"},"{":{"x_min":0,"x_max":258,"ha":258,"o":"m 199 -165 q 172 -165 154 -164 q 136 -163 120 -158 q 105 -153 96 -148 q 87 -144 81 -131 q 75 -118 73 -106 q 70 -94 70 -70 q 70 -45 72 -23 q 74 -1 78 37 l 92 166 q 97 206 97 232 q 97 242 96 250 q 94 279 83 290 q 73 300 48 300 l 54 357 q 90 357 104 383 q 117 408 126 491 l 139 616 q 142 646 145 665 q 147 684 150 705 q 154 726 157 738 q 160 750 166 763 q 171 777 177 783 q 182 790 191 797 q 201 805 210 808 q 220 811 235 813 q 250 816 265 817 q 281 817 302 817 l 296 763 q 258 763 246 753 q 230 741 224 695 q 221 675 214 616 l 214 616 l 199 476 q 192 403 175 370 q 157 338 125 329 q 146 323 156 308 q 167 292 171 262 q 172 250 172 235 q 172 212 168 182 l 153 37 q 145 -18 145 -49 q 145 -56 146 -62 q 147 -95 158 -102 q 169 -110 205 -110 z"},"9":{"x_min":0,"x_max":491,"ha":491,"o":"m 227 -10 q 60 -10 60 148 q 60 163 62 180 q 62 180 62 187 q 63 193 63 194 l 135 194 q 133 172 133 154 q 133 107 148 83 q 170 51 234 51 q 288 51 320 91 q 352 131 362 226 l 378 378 q 358 358 323 344 q 289 331 242 331 q 145 331 112 387 q 89 426 89 502 q 89 534 93 572 q 119 818 312 818 q 474 818 474 625 q 474 597 471 565 l 437 242 q 411 -10 227 -10 z m 265 387 q 336 387 384 434 l 398 574 q 401 605 401 631 q 401 685 387 714 q 364 757 305 757 q 245 757 212 715 q 178 673 169 586 q 164 536 164 499 q 164 486 164 476 q 167 431 190 409 q 214 387 265 387 z"}," ":{"x_min":0,"x_max":204,"ha":204,"o":""},"I":{"x_min":0,"x_max":222,"ha":222,"o":"m 52 0 l 137 810 l 212 810 l 127 0 z"},"H":{"x_min":0,"x_max":549,"ha":549,"o":"m 48 0 l 133 810 l 210 810 l 172 451 l 427 451 l 465 810 l 542 810 l 457 0 l 380 0 l 421 395 l 167 395 l 125 0 z"},"4":{"x_min":0,"x_max":492,"ha":492,"o":"m 272 0 l 297 235 l 53 235 l 61 312 l 342 810 l 431 810 l 377 304 l 470 304 l 462 235 l 371 235 l 346 0 z m 136 304 l 304 304 l 347 711 z"},"~":{"x_min":0,"x_max":407,"ha":407,"o":"m 289 375 q 271 375 246 388 q 220 402 196 416 q 171 430 157 430 q 132 430 84 390 l 61 424 q 88 451 117 469 q 147 487 168 487 q 186 487 211 474 q 236 460 260 446 q 284 433 299 433 q 308 433 320 438 q 331 443 340 449 q 349 456 369 470 l 392 436 q 327 375 289 375 z"},"D":{"x_min":0,"x_max":521,"ha":521,"o":"m 131 57 l 233 57 q 260 57 281 62 q 303 68 319 77 q 334 86 346 101 q 358 116 366 131 q 374 147 380 170 q 386 192 389 213 q 392 233 395 262 l 427 564 q 430 596 430 622 q 430 646 427 666 q 422 708 392 729 q 362 751 303 751 l 204 751 z m 48 0 l 133 810 l 311 810 q 372 810 414 793 q 455 776 476 744 q 498 711 504 669 q 508 647 508 621 q 508 598 505 572 l 471 250 q 465 191 449 146 q 434 102 406 68 q 378 35 334 17 q 291 0 231 0 z"},"^":{"x_min":0,"x_max":395,"ha":395,"o":"m 61 511 l 222 810 l 299 810 l 397 511 l 332 511 l 255 759 l 127 511 z"},"0":{"x_min":0,"x_max":492,"ha":492,"o":"m 229 49 q 348 49 366 223 l 404 586 q 407 608 407 629 q 407 642 406 655 q 403 687 393 710 q 383 733 361 747 q 338 760 304 760 q 239 760 207 714 q 175 667 167 586 l 129 223 q 126 199 126 179 q 126 49 229 49 z m 223 -10 q 52 -10 52 177 q 52 201 55 229 l 92 581 q 117 818 310 818 q 481 818 481 632 q 481 608 479 581 l 442 229 q 417 -10 223 -10 z"},"F":{"x_min":0,"x_max":386,"ha":386,"o":"m 48 0 l 133 810 l 425 810 l 419 752 l 204 752 l 172 448 l 351 448 l 345 392 l 167 392 l 125 0 z"},"`":{"x_min":0,"x_max":235,"ha":235,"o":"m 188 614 l 116 810 l 189 810 l 225 614 z"},"k":{"x_min":0,"x_max":400,"ha":400,"o":"m 35 1 l 120 811 l 193 811 l 139 296 l 361 578 l 439 578 l 270 355 l 372 0 l 298 0 l 210 314 l 131 219 l 108 1 z"},"u":{"x_min":0,"x_max":412,"ha":412,"o":"m 118 -9 q 74 -9 55 23 q 40 48 40 87 q 40 100 42 115 l 90 578 l 164 578 l 117 130 q 115 117 115 106 q 115 81 123 67 q 135 49 163 49 q 213 49 271 106 l 321 578 l 394 578 l 333 0 l 260 0 l 267 64 q 195 -9 118 -9 z"},"]":{"x_min":0,"x_max":285,"ha":285,"o":"m 1 -159 l 6 -119 l 107 -119 l 200 769 l 99 769 l 104 810 l 278 810 l 176 -159 z"},"U":{"x_min":0,"x_max":537,"ha":537,"o":"m 246 -10 q 197 -10 162 1 q 126 12 106 32 q 85 53 74 81 q 62 110 62 145 q 61 154 61 164 q 61 191 63 221 l 125 810 l 199 810 l 137 219 q 133 198 133 178 q 133 165 135 152 q 139 122 150 99 q 161 77 187 64 q 213 51 252 51 q 291 51 318 64 q 346 76 363 100 q 380 124 390 152 q 399 181 403 219 l 465 810 l 538 810 l 477 221 q 471 168 457 128 q 442 87 416 55 q 390 23 347 6 q 304 -10 246 -10 z"},"o":{"x_min":0,"x_max":398,"ha":398,"o":"m 182 46 q 201 46 215 51 q 229 56 239 67 q 249 78 255 90 q 262 103 266 123 q 271 143 274 160 q 276 178 279 205 l 297 373 q 300 400 301 418 q 302 429 302 442 q 302 449 302 456 q 301 476 297 488 q 293 500 285 511 q 278 522 265 527 q 251 532 233 532 q 211 532 195 524 q 179 516 169 504 q 159 491 152 469 q 146 447 142 426 q 139 405 136 373 l 118 205 q 113 158 113 122 q 113 87 130 66 q 146 46 182 46 z m 176 -9 q 90 -9 62 44 q 42 83 42 149 q 42 177 45 209 l 62 369 q 68 423 79 462 q 90 500 111 530 q 131 559 163 573 q 194 587 239 587 q 325 587 354 533 q 374 496 374 429 q 374 401 370 369 l 354 209 q 348 154 336 115 q 325 77 304 48 q 284 19 252 5 q 221 -9 176 -9 z"},"N":{"x_min":0,"x_max":520,"ha":520,"o":"m 48 0 l 133 810 l 189 810 l 381 181 l 447 810 l 513 810 l 428 0 l 374 0 l 181 636 l 114 0 z"},"+":{"x_min":0,"x_max":383,"ha":383,"o":"m 165 230 l 181 388 l 42 388 l 48 443 l 187 443 l 203 600 l 259 600 l 243 443 l 384 443 l 378 388 l 237 388 l 221 230 z"},"G":{"x_min":0,"x_max":520,"ha":520,"o":"m 231 -11 q 175 -11 137 8 q 99 26 81 60 q 62 94 57 141 q 54 162 54 186 q 54 214 58 247 l 91 563 q 98 625 112 669 q 126 714 152 749 q 179 783 221 801 q 264 818 323 818 q 428 818 467 760 q 497 715 497 637 q 497 613 494 585 l 491 557 l 419 557 l 422 585 q 425 615 425 639 q 425 662 423 681 q 417 719 392 739 q 367 758 318 758 q 285 758 260 748 q 236 739 220 723 q 205 708 194 683 q 183 658 178 632 q 173 606 169 570 l 134 238 q 131 208 131 182 q 131 158 134 137 q 139 96 166 73 q 193 51 245 51 q 316 51 348 98 q 381 144 391 240 l 401 335 l 282 335 l 288 392 l 478 392 l 436 0 l 387 0 l 388 92 q 343 -11 231 -11 z"},"q":{"x_min":0,"x_max":414,"ha":414,"o":"m 243 -190 l 268 42 q 219 -9 164 -9 q 89 -9 62 47 q 45 84 45 153 q 45 189 50 233 l 61 340 q 65 388 73 424 q 81 460 93 492 q 105 524 123 544 q 140 564 165 575 q 190 587 223 587 q 280 587 320 537 l 324 578 l 397 578 l 316 -190 z m 185 49 q 228 49 272 88 l 314 488 q 275 529 233 529 q 187 529 166 490 q 146 452 136 364 l 122 228 q 118 185 118 153 q 118 114 125 91 q 137 49 185 49 z"},"d":{"x_min":0,"x_max":413,"ha":413,"o":"m 162 -9 q 87 -9 61 47 q 43 84 43 153 q 43 189 48 233 l 59 340 q 63 388 71 424 q 79 460 91 492 q 104 524 121 544 q 138 564 163 575 q 188 587 221 587 q 278 587 317 537 l 346 810 l 419 810 l 334 0 l 261 0 l 266 42 q 216 -9 162 -9 z m 183 49 q 225 49 271 87 l 312 488 q 272 529 231 529 q 185 529 164 490 q 144 452 134 364 l 120 228 q 116 185 116 153 q 116 114 123 91 q 135 49 183 49 z"},"1":{"x_min":0,"x_max":427,"ha":427,"o":"m 192 0 l 267 712 q 248 689 135 659 l 142 718 q 178 728 220 752 q 263 776 291 810 l 350 810 l 265 0 z"},"5":{"x_min":0,"x_max":484,"ha":484,"o":"m 226 -9 q 130 -9 94 45 q 65 87 65 161 q 65 184 68 209 l 141 209 q 138 186 138 166 q 138 154 139 143 q 142 113 152 93 q 162 72 182 61 q 203 49 234 49 q 299 49 328 99 q 357 148 369 256 q 373 296 373 328 q 373 383 360 412 q 340 458 279 458 q 213 458 167 390 l 105 390 l 149 810 l 464 810 l 456 741 l 207 741 l 173 460 q 222 514 303 514 q 390 514 422 450 q 446 405 446 330 q 446 300 442 265 q 428 128 376 60 q 325 -9 226 -9 z"}}}
